<?xml version="1.0" encoding="UTF-8"?>
<svg version="1.1" xmlns="http://www.w3.org/2000/svg" width="512" height="512">
  <path d="M0 0 C1.90204823 0.85210797 3.77442435 1.77200613 5.62109375 2.73828125 C6.7090625 3.30450195 7.79703125 3.87072266 8.91796875 4.45410156 C10.07941406 5.06737305 11.24085938 5.68064453 12.4375 6.3125 C13.66388069 6.95444901 14.89044573 7.59604596 16.1171875 8.23730469 C24.16072107 12.4528844 32.13501067 16.78914997 40.08569336 21.17700195 C49.56378219 26.3730211 59.19550847 31.26545661 68.81860352 36.1854248 C78.4570772 41.11577679 88.02510985 46.13597635 97.49609375 51.3828125 C106.07149252 56.10250566 114.785468 60.5446428 123.5 65 C133.89714426 70.31560289 144.23686102 75.69488108 154.44995117 81.35864258 C165.03500898 87.18834324 175.82333761 92.63442767 186.58789062 98.12304688 C187.3350383 98.5047554 188.08218597 98.88646393 188.85197449 99.27973938 C190.27108389 100.00448387 191.69106601 100.72752265 193.11201477 101.44865417 C197.88808557 103.88808557 197.88808557 103.88808557 199 105 C199 119.52 199 134.04 199 149 C65.02 149 -68.96 149 -207 149 C-207 134.48 -207 119.96 -207 105 C-202.00875 102.4425 -197.0175 99.885 -191.875 97.25 C-182.23075282 92.29473875 -172.6111548 87.31608107 -163.125 82.0625 C-152.92604025 76.41731932 -142.55764293 71.11954016 -132.17974854 65.81375122 C-123.3905977 61.31784387 -114.63668284 56.7846412 -106 52 C-96.60344851 46.7943987 -87.06341713 41.88938034 -77.5 37 C-67.895147 32.08936689 -58.31564392 27.15949647 -48.875 21.9375 C-40.19590811 17.15993181 -31.47094887 12.4716546 -22.69512939 7.8742981 C-21.20040388 7.08854584 -19.708284 6.29781511 -18.21893311 5.50192261 C-16.13069229 4.38732944 -14.03367418 3.29130191 -11.93359375 2.19921875 C-11.30747696 1.8603363 -10.68136017 1.52145386 -10.03627014 1.17230225 C-6.25238751 -0.76507769 -4.03511658 -1.45368497 0 0 Z" fill="antiquewhite" transform="translate(249,22)"/>
  <!-- <path d="M-10.49609375 50.8828125 C-11.11676224 51.20787781 -11.73743073 51.53294312 -12.37690735 51.86785889 C-14.4066706 52.93652552 -16.42165881 54.0303319 -18.4375 55.125 C-19.85304522 55.87666358 -21.26939479 56.62681425 -22.68652344 57.37548828 C-31.26489693 61.92317061 -39.78661052 66.57936707 -48.28442383 71.27563477 C-57.72459812 76.46474241 -67.32835607 81.33269656 -76.91921997 86.23522949 C-88.73411088 92.27793936 -100.43967546 98.48026417 -112 105 C-112 105.33 -112 105.66 -112 106 C-40.39 106 31.22 106 105 106 C100.60051826 102.45566464 100.60051826 102.45566464 95.91015625 99.84375 C95.13857178 99.46798828 94.3669873 99.09222656 93.57202148 98.70507812 C92.74387939 98.30740234 91.9157373 97.90972656 91.0625 97.5 C83.919903 94.00116074 76.89369392 90.35554185 69.9375 86.5 C59.47670813 80.71770084 48.85589787 75.26923335 38.21353149 69.83178711 C27.8813917 64.55008637 17.61992717 59.1767739 7.48242188 53.52734375 C6.68642578 53.08519531 5.89042969 52.64304687 5.0703125 52.1875 C4.39758301 51.80980469 3.72485352 51.43210938 3.03173828 51.04296875 C2.36126465 50.69878906 1.69079102 50.35460937 1 50 C0.22503174 49.5654248 -0.54993652 49.13084961 -1.34838867 48.68310547 C-5.22639461 47.68405744 -7.00697514 49.02072473 -10.49609375 50.8828125 Z" fill="antiquewhite"/> -->
  <path d="M0 0 C133.98 0 267.96 0 406 0 C406 14.19 406 28.38 406 43 C272.02 43 138.04 43 0 43 C0 28.81 0 14.62 0 0 Z" fill="antiquewhite" transform="translate(42,405)"/>
  <path d="M0 0 C14.19 0 28.38 0 43 0 C43 49.5 43 99 43 150 C28.81 150 14.62 150 0 150 C0 100.5 0 51 0 0 Z" fill="antiquewhite" transform="translate(352,213)"/>
  <path d="M0 0 C14.19 0 28.38 0 43 0 C43 49.5 43 99 43 150 C28.81 150 14.62 150 0 150 C0 100.5 0 51 0 0 Z" fill="antiquewhite" transform="translate(224,213)"/>
  <path d="M0 0 C14.19 0 28.38 0 43 0 C43 49.5 43 99 43 150 C28.81 150 14.62 150 0 150 C0 100.5 0 51 0 0 Z" fill="antiquewhite" transform="translate(96,213)"/>
</svg>
